<?xml version="1.0" ?><!DOCTYPE svg  PUBLIC '-//W3C//DTD SVG 1.1//EN'  'http://www.w3.org/Graphics/SVG/1.1/DTD/svg11.dtd'><svg height="423.0" viewBox="-11.5 -11.5 523.0 423.0" width="523.0" xmlns="http://www.w3.org/2000/svg"><polyline points="0.0,0.0 50.0,300.0 300.0,250.0 350.0,400.0 500.0,20.0 300.0,100.0" style="fill:none;stroke:black;stroke-width:0.5"/><path d="M0.0 0.0 C50.0 300.0 116.666666667 286.666666667 168.222222222 284.888888889" style="fill:none;stroke:red"/><path d="M168.222222222 284.888888889 C310.0 280.0 337.5 362.5 416.9921875 208.671875" style="fill:none;stroke:blue"/><path d="M416.9921875 208.671875 C453.125 138.75 500.0 20.0 300.0 100.0" style="fill:none;stroke:red"/><path d="M300.0 100.0 C300.0 100.0 300.0 100.0 300.0 100.0" style="fill:none;stroke:blue"/><circle cx="0.0" cy="0.0" r="1.5" style="fill:black;stroke:black"/><circle cx="50.0" cy="300.0" r="1.5" style="fill:black;stroke:black"/><circle cx="300.0" cy="250.0" r="1.5" style="fill:black;stroke:black"/><circle cx="350.0" cy="400.0" r="1.5" style="fill:black;stroke:black"/><circle cx="500.0" cy="20.0" r="1.5" style="fill:black;stroke:black"/><circle cx="300.0" cy="100.0" r="1.5" style="fill:black;stroke:black"/></svg>