<?xml version="1.0" encoding="UTF-8"?>
<svg xmlns="http://www.w3.org/2000/svg" xmlns:xlink="http://www.w3.org/1999/xlink" width="230.38pt" height="142.31pt" viewBox="0 0 230.38 142.31" version="1.2">
<g id="surface1">
<path style="fill:none;stroke-width:5;stroke-linecap:round;stroke-linejoin:round;stroke:rgb(0%,0%,0%);stroke-opacity:1;stroke-miterlimit:10;" d="M 651.333785 33.896852 L 824.748667 184.231618 L 983.679599 334.134614 L 1053.155457 408.791723 L 1113.564127 483.134816 L 1163.06077 557.203146 L 1183.157741 594.060678 L 1199.879049 630.839706 L 1212.949931 667.500978 L 1222.134875 704.044494 L 1227.276874 740.470255 L 1228.218919 758.643883 L 1228.061911 776.77826 L 1224.332981 812.929257 L 1215.854571 848.923247 L 1202.351919 884.799481 L 1193.677249 902.698346 L 1183.668016 920.518707 L 1130.560199 991.211374 L 1059.239501 1059.980698 L 875.933141 1186.725075 L 662.010301 1290.585595 L 552.379752 1330.779538 L 445.693095 1361.474521 L 345.483001 1381.375233 L 298.890999 1386.909751 L 255.24289 1389.264865 L 215.009695 1388.283567 L 178.544682 1383.808851 L 161.94113 1380.236928 L 146.397379 1375.72296 L 132.070436 1370.266946 L 125.358362 1367.166046 L 122.100454 1365.517467 L 118.92105 1363.790383 L 107.106229 1356.411027 L 96.547469 1348.050372 L 87.244769 1338.747673 L 83.005564 1333.72343 L 79.119627 1328.542179 L 72.250545 1317.473144 L 66.559019 1305.619071 L 62.045051 1292.901457 L 60.239464 1286.267886 L 58.70864 1279.438056 L 55.372229 1250.391652 L 56.43203 1218.597615 L 61.691784 1184.409213 L 71.072988 1148.022704 L 101.414704 1069.754421 " transform="matrix(0.0995175,0,0,-0.0995175,0.247308,141.623329)"/>
<path style="fill:none;stroke-width:5;stroke-linecap:round;stroke-linejoin:round;stroke:rgb(0%,0%,0%);stroke-opacity:1;stroke-miterlimit:10;" d="M 101.414704 1069.754421 L 146.279623 985.833864 L 204.372431 898.262882 L 274.594075 809.082571 L 446.164118 634.136865 L 651.333785 477.168528 L 881.153643 350.895174 L 1130.834962 253.197202 L 1396.374047 178.383086 L 1673.767205 120.682797 L 1959.089246 74.444062 L 2248.375729 33.896852 " transform="matrix(0.0995175,0,0,-0.0995175,0.247308,141.623329)"/>
<path style="fill:none;stroke-width:5;stroke-linecap:round;stroke-linejoin:round;stroke:rgb(100%,0%,0%);stroke-opacity:1;stroke-miterlimit:10;" d="M 651.333785 33.896852 L 1183.668016 920.518707 L 118.92105 1363.790383 L 651.333785 477.168528 L 2248.375729 33.896852 " transform="matrix(0.0995175,0,0,-0.0995175,0.247308,141.623329)"/>
<path style="fill:none;stroke-width:46.0536;stroke-linecap:round;stroke-linejoin:round;stroke:rgb(100%,0%,0%);stroke-opacity:1;stroke-miterlimit:10;" d="M 651.333785 33.896852 L 651.333785 33.896852 " transform="matrix(0.0995175,0,0,-0.0995175,0.247308,141.623329)"/>
<path style="fill:none;stroke-width:46.0536;stroke-linecap:round;stroke-linejoin:round;stroke:rgb(100%,0%,0%);stroke-opacity:1;stroke-miterlimit:10;" d="M 1183.668016 920.518707 L 1183.668016 920.518707 " transform="matrix(0.0995175,0,0,-0.0995175,0.247308,141.623329)"/>
<path style="fill:none;stroke-width:46.0536;stroke-linecap:round;stroke-linejoin:round;stroke:rgb(100%,0%,0%);stroke-opacity:1;stroke-miterlimit:10;" d="M 118.92105 1363.790383 L 118.92105 1363.790383 " transform="matrix(0.0995175,0,0,-0.0995175,0.247308,141.623329)"/>
<path style="fill:none;stroke-width:46.0536;stroke-linecap:round;stroke-linejoin:round;stroke:rgb(100%,0%,0%);stroke-opacity:1;stroke-miterlimit:10;" d="M 651.333785 477.168528 L 651.333785 477.168528 " transform="matrix(0.0995175,0,0,-0.0995175,0.247308,141.623329)"/>
<path style="fill:none;stroke-width:46.0536;stroke-linecap:round;stroke-linejoin:round;stroke:rgb(100%,0%,0%);stroke-opacity:1;stroke-miterlimit:10;" d="M 2248.375729 33.896852 L 2248.375729 33.896852 " transform="matrix(0.0995175,0,0,-0.0995175,0.247308,141.623329)"/>
</g>
</svg>
